<svg xmlns="http://www.w3.org/2000/svg" width="15.714" height="10" viewBox="0 0 15.714 10">
  <path id="ic_group_24px" d="M11.714,9.286A2.143,2.143,0,1,0,9.571,7.143,2.134,2.134,0,0,0,11.714,9.286ZM6,9.286A2.143,2.143,0,1,0,3.857,7.143,2.134,2.134,0,0,0,6,9.286Zm0,1.429c-1.664,0-5,.836-5,2.5V15H11V13.214C11,11.55,7.664,10.714,6,10.714Zm5.714,0c-.207,0-.443.014-.693.036a3.014,3.014,0,0,1,1.407,2.464V15h4.286V13.214C16.714,11.55,13.379,10.714,11.714,10.714Z" transform="translate(-1 -5)" fill="rgba(72,72,72,0.1)"/>
</svg>
