<svg xmlns="http://www.w3.org/2000/svg" width="14.642" height="14.668" viewBox="0 0 14.642 14.668">
  <path id="Icon_feather-phone" data-name="Icon feather-phone" d="M14.734,11.4v1.957a1.3,1.3,0,0,1-1.422,1.3,12.91,12.91,0,0,1-5.63-2A12.721,12.721,0,0,1,3.768,8.745a12.91,12.91,0,0,1-2-5.656,1.3,1.3,0,0,1,1.3-1.422H5.02a1.3,1.3,0,0,1,1.3,1.122,8.376,8.376,0,0,0,.457,1.833A1.3,1.3,0,0,1,6.488,6l-.828.828a10.437,10.437,0,0,0,3.914,3.914l.828-.828a1.3,1.3,0,0,1,1.376-.294,8.376,8.376,0,0,0,1.833.457A1.3,1.3,0,0,1,14.734,11.4Z" transform="translate(-0.926 -0.833)" fill="none" stroke="#fff" stroke-linecap="round" stroke-linejoin="round" stroke-width="1.667"/>
</svg>
