<svg xmlns="http://www.w3.org/2000/svg" width="26.111" height="21.667" viewBox="0 0 26.111 21.667">
  <g id="Icon_feather-camera" data-name="Icon feather-camera" transform="translate(0 -1.667)">
    <path id="Path_24046" data-name="Path 24046" d="M25.278,20.278A2.222,2.222,0,0,1,23.056,22.5h-20A2.222,2.222,0,0,1,.833,20.278V8.056A2.222,2.222,0,0,1,3.056,5.833H7.5L9.722,2.5h6.667l2.222,3.333h4.444a2.222,2.222,0,0,1,2.222,2.222Z" transform="translate(0 0)" fill="none" stroke="#484848" stroke-linecap="round" stroke-linejoin="round" stroke-width="1.667"/>
    <path id="Path_24047" data-name="Path 24047" d="M13.333,10.833A3.333,3.333,0,1,1,10,7.5a3.333,3.333,0,0,1,3.333,3.333Z" transform="translate(3.056 3)" fill="none" stroke="#484848" stroke-linecap="round" stroke-linejoin="round" stroke-width="1.667"/>
  </g>
</svg>
