<svg xmlns="http://www.w3.org/2000/svg" width="140" height="140" viewBox="0 0 140 140">
  <g id="Group_16206" data-name="Group 16206" transform="translate(-110 -233)">
    <path id="Icon_metro-qrcode" data-name="Icon metro-qrcode" d="M46.321,10.678h-35v35h35Zm8.75-8.75v52.5H2.571V1.928Zm-35,17.5h17.5v17.5h-17.5Zm113.75-8.75h-35v35h35Zm8.75-8.75v52.5h-52.5V1.928h52.5Zm-35,17.5h17.5v17.5h-17.5Zm-61.25,78.75h-35v35h35Zm8.75-8.75v52.5H2.571v-52.5Zm-35,17.5h17.5v17.5h-17.5Zm43.75-105h8.75v8.75h-8.75Zm8.75,8.75h8.75v8.75h-8.75Zm-8.75,8.75h8.75v8.75h-8.75Zm8.75,8.75h8.75v8.75h-8.75Zm-8.75,8.75h8.75v8.75h-8.75Zm8.75,8.75h8.75v8.75h-8.75Zm-8.75,8.75h8.75v8.75h-8.75Zm0,17.5h8.75v8.75h-8.75Zm8.75,8.75h8.75v8.75h-8.75Zm-8.75,8.75h8.75v8.75h-8.75Zm8.75,8.75h8.75v8.75h-8.75Zm-8.75,8.75h8.75v8.75h-8.75Zm8.75,8.75h8.75v8.75h-8.75Zm-8.75,8.75h8.75v8.75h-8.75Zm8.75,8.75h8.75v8.75h-8.75Zm61.25-61.25h8.75v8.75h-8.75Zm-122.5,0h8.75v8.75h-8.75Zm8.75-8.75h8.75v8.75h-8.75Zm-17.5,0h8.75v8.75H2.571Zm35,0h8.75v8.75h-8.75Zm8.75,8.75h8.75v8.75h-8.75Zm8.75-8.75h8.75v8.75h-8.75Zm26.25,8.75h8.75v8.75h-8.75Zm8.75-8.75h8.75v8.75h-8.75Zm8.75,8.75h8.75v8.75h-8.75Zm8.75-8.75h8.75v8.75h-8.75Zm8.75,8.75h8.75v8.75h-8.75Zm8.75-8.75h8.75v8.75h-8.75Zm8.75,26.25h8.75v8.75h-8.75Zm-52.5,0h8.75v8.75h-8.75Zm8.75-8.75h8.75v8.75h-8.75Zm8.75,8.75h8.75v8.75h-8.75Zm17.5,0h8.75v8.75h-8.75Zm8.75-8.75h8.75v8.75h-8.75Zm8.75,26.25h8.75v8.75h-8.75Zm-52.5,0h8.75v8.75h-8.75Zm8.75-8.75h8.75v8.75h-8.75Zm17.5,0h8.75v8.75h-8.75Zm8.75,8.75h8.75v8.75h-8.75Zm8.75-8.75h8.75v8.75h-8.75Zm8.75,26.25h8.75v8.75h-8.75Zm-43.75-8.75h8.75v8.75h-8.75Zm8.75,8.75h8.75v8.75h-8.75Zm8.75-8.75h8.75v8.75h-8.75Zm8.75,8.75h8.75v8.75h-8.75Zm-26.25,8.75h8.75v8.75h-8.75Zm17.5,0h8.75v8.75h-8.75Zm17.5,0h8.75v8.75h-8.75Z" transform="translate(107.429 231.072)" fill="#7f7f7f"/>
  </g>
</svg>
