<svg xmlns="http://www.w3.org/2000/svg" width="20.5" height="15.003" viewBox="0 0 20.5 15.003">
  <g id="Group_16115" data-name="Group 16115" transform="translate(0 0.001)">
    <path id="Icon_awesome-sign-out-alt" data-name="Icon awesome-sign-out-alt" d="M7.5,17.031V15.469A.47.47,0,0,0,7.031,15H3.75A1.249,1.249,0,0,1,2.5,13.75V6.25A1.249,1.249,0,0,1,3.75,5H7.031A.47.47,0,0,0,7.5,4.531V2.969A.47.47,0,0,0,7.031,2.5H3.75A3.751,3.751,0,0,0,0,6.25v7.5A3.751,3.751,0,0,0,3.75,17.5H7.031A.47.47,0,0,0,7.5,17.031Z" transform="translate(0 -2.5)" fill="#03a9f4"/>
    <path id="Icon_awesome-sign-out-alt-2" data-name="Icon awesome-sign-out-alt" d="M5.272,10.664l6.563,6.563a.939.939,0,0,0,1.6-.664v-3.75h5.313a.935.935,0,0,0,.938-.937V8.125a.935.935,0,0,0-.937-.937H13.437V3.438a.94.94,0,0,0-1.6-.664L5.272,9.336A.945.945,0,0,0,5.272,10.664Z" transform="translate(0.813 -2.5)" fill="#03a9f4"/>
  </g>
</svg>
