<svg xmlns="http://www.w3.org/2000/svg" width="16.25" height="15" viewBox="0 0 16.25 15">
  <g id="Icon_ionic-md-chatboxes" data-name="Icon ionic-md-chatboxes" transform="translate(-1.875 -2.5)">
    <path id="Path_24197" data-name="Path 24197" d="M15.3,2.5H2.25a.376.376,0,0,0-.375.319v8.368a.392.392,0,0,0,.375.337H4.492V15l3.521-3.472H15.3a.315.315,0,0,0,.291-.337V2.819A.3.3,0,0,0,15.3,2.5Z" fill="#03a9f4"/>
    <path id="Path_24198" data-name="Path 24198" d="M17.828,4.961H16.563v6.507c0,.624-.27,1.032-.983,1.032H8.519L7,14.023h5.066l3.52,3.477V14.023h2.242a.322.322,0,0,0,.3-.339V5.317A.338.338,0,0,0,17.828,4.961Z" fill="#03a9f4"/>
  </g>
</svg>
