<svg xmlns="http://www.w3.org/2000/svg" width="19.687" height="15.002" viewBox="0 0 19.687 15.002">
  <path id="Icon_awesome-sign-out-alt" data-name="Icon awesome-sign-out-alt" d="M19.414,10.664l-6.562,6.563a.939.939,0,0,1-1.6-.664v-3.75H5.938A.935.935,0,0,1,5,11.875V8.125a.935.935,0,0,1,.938-.937H11.25V3.438a.94.94,0,0,1,1.6-.664l6.563,6.563A.945.945,0,0,1,19.414,10.664ZM7.5,17.031V15.469A.47.47,0,0,0,7.031,15H3.75A1.249,1.249,0,0,1,2.5,13.75V6.25A1.249,1.249,0,0,1,3.75,5H7.031A.47.47,0,0,0,7.5,4.531V2.969A.47.47,0,0,0,7.031,2.5H3.75A3.751,3.751,0,0,0,0,6.25v7.5A3.751,3.751,0,0,0,3.75,17.5H7.031A.47.47,0,0,0,7.5,17.031Z" transform="translate(0 -2.499)" fill="#03a9f4"/>
</svg>
