<svg xmlns="http://www.w3.org/2000/svg" width="21.034" height="23.031" viewBox="0 0 21.034 23.031">
  <g id="Icon_feather-box" data-name="Icon feather-box" transform="translate(-1.983 -1.011)">
    <path id="Path_24291" data-name="Path 24291" d="M21.875,16.667V8.333a2.083,2.083,0,0,0-1.042-1.8L13.542,2.365a2.083,2.083,0,0,0-2.083,0L4.167,6.531a2.083,2.083,0,0,0-1.042,1.8v8.333a2.083,2.083,0,0,0,1.042,1.8l7.292,4.167a2.083,2.083,0,0,0,2.083,0l7.292-4.167A2.083,2.083,0,0,0,21.875,16.667Z" fill="none" stroke="#7f7f7f" stroke-linecap="round" stroke-linejoin="round" stroke-width="2.083"/>
    <path id="Path_24292" data-name="Path 24292" d="M3.406,7.25,12.5,12.51l9.094-5.26" fill="none" stroke="#7f7f7f" stroke-linecap="round" stroke-linejoin="round" stroke-width="2.083"/>
    <path id="Path_24293" data-name="Path 24293" d="M12.5,23V12.5" fill="none" stroke="#7f7f7f" stroke-linecap="round" stroke-linejoin="round" stroke-width="2.083"/>
  </g>
</svg>
