<svg xmlns="http://www.w3.org/2000/svg" width="22.5" height="19.996" viewBox="0 0 22.5 19.996">
  <path id="Icon_awesome-edit" data-name="Icon awesome-edit" d="M15.727,3.25,19.25,6.773a.382.382,0,0,1,0,.539l-8.531,8.531-3.625.4a.76.76,0,0,1-.84-.84l.4-3.625L15.188,3.25A.382.382,0,0,1,15.727,3.25Zm6.328-.895L20.148.449a1.528,1.528,0,0,0-2.156,0L16.609,1.832a.382.382,0,0,0,0,.539l3.523,3.523a.382.382,0,0,0,.539,0l1.383-1.383A1.528,1.528,0,0,0,22.055,2.355ZM15,13.523V17.5H2.5V5h8.977a.48.48,0,0,0,.332-.137L13.371,3.3a.469.469,0,0,0-.332-.8H1.875A1.875,1.875,0,0,0,0,4.375v13.75A1.875,1.875,0,0,0,1.875,20h13.75A1.875,1.875,0,0,0,17.5,18.125V11.961a.47.47,0,0,0-.8-.332l-1.562,1.563A.48.48,0,0,0,15,13.523Z" transform="translate(0 -0.004)" fill="#03a9f4"/>
</svg>
