<svg xmlns="http://www.w3.org/2000/svg" width="18.872" height="23" viewBox="0 0 18.872 23">
  <path id="ic_notifications_none_24px" d="M13.436,25.5a2.366,2.366,0,0,0,2.359-2.359H11.077A2.366,2.366,0,0,0,13.436,25.5Zm7.077-7.077v-5.9c0-3.621-1.923-6.652-5.308-7.454v-.8a1.769,1.769,0,1,0-3.538,0v.8c-3.373.8-5.308,3.822-5.308,7.454v5.9L4,20.782v1.179H22.872V20.782ZM18.154,19.6H8.718V12.526c0-2.925,1.781-5.308,4.718-5.308s4.718,2.383,4.718,5.308Z" transform="translate(-4 -2.5)" fill="#7f7f7f"/>
</svg>
