<svg xmlns="http://www.w3.org/2000/svg" width="15" height="15" viewBox="0 0 15 15">
  <path id="Icon_ionic-ios-checkbox" data-name="Icon ionic-ios-checkbox" d="M16.25,2.5H3.75A1.249,1.249,0,0,0,2.5,3.75v12.5A1.249,1.249,0,0,0,3.75,17.5h12.5a1.249,1.249,0,0,0,1.25-1.25V3.75A1.249,1.249,0,0,0,16.25,2.5ZM14.2,7.754,8.977,13h0a.705.705,0,0,1-.453.215.684.684,0,0,1-.457-.223L5.875,10.8a.156.156,0,0,1,0-.223l.7-.7a.151.151,0,0,1,.219,0l1.734,1.734,4.766-4.8a.154.154,0,0,1,.109-.047h0a.142.142,0,0,1,.109.047l.684.707A.154.154,0,0,1,14.2,7.754Z" transform="translate(-2.5 -2.5)" fill="#03a9f4"/>
</svg>
