<svg xmlns="http://www.w3.org/2000/svg" width="25" height="12.496" viewBox="0 0 25 12.496">
  <path id="Icon_awesome-truck-moving" data-name="Icon awesome-truck-moving" d="M24.27,9.27,21.984,6.984a2.5,2.5,0,0,0-1.77-.73H16.666l.063,6.54H0v2.832a3.117,3.117,0,0,0,5.625,1.859,3.117,3.117,0,0,0,5.625-1.859A3.292,3.292,0,0,0,11.188,15h6.375a3,3,0,0,0-.062.625,3.125,3.125,0,0,0,6.25,0A3.292,3.292,0,0,0,23.688,15h.688A.627.627,0,0,0,25,14.375v-3.34A2.492,2.492,0,0,0,24.27,9.27ZM3.125,16.875a1.25,1.25,0,1,1,1.25-1.25A1.254,1.254,0,0,1,3.125,16.875Zm5,0a1.25,1.25,0,1,1,1.25-1.25A1.254,1.254,0,0,1,8.125,16.875ZM18.75,8.125h1.465a.62.62,0,0,1,.441.184L22.348,10h-3.6Zm1.875,8.75a1.25,1.25,0,1,1,1.25-1.25A1.254,1.254,0,0,1,20.625,16.875Z" transform="translate(0 -6.254)" fill="rgba(72,72,72,0.2)"/>
</svg>
