<svg xmlns="http://www.w3.org/2000/svg" width="19.233" height="17.561" viewBox="0 0 19.233 17.561">
  <path id="Icon_material-add-a-photo" data-name="Icon material-add-a-photo" d="M2.509,4.009V1.5H4.181V4.009H6.69V5.681H4.181V8.19H2.509V5.681H0V4.009ZM5.017,9.026V6.517H7.526V4.009h5.854l1.53,1.672h2.651a1.677,1.677,0,0,1,1.672,1.672V17.388a1.677,1.677,0,0,1-1.672,1.672H4.181a1.677,1.677,0,0,1-1.672-1.672V9.026Zm5.854,7.526A4.181,4.181,0,1,0,6.69,12.371,4.183,4.183,0,0,0,10.871,16.552ZM8.195,12.371a2.676,2.676,0,1,0,2.676-2.676A2.673,2.673,0,0,0,8.195,12.371Z" transform="translate(0 -1.5)" fill="#03a9f4"/>
</svg>
