<svg xmlns="http://www.w3.org/2000/svg" width="20" height="20" viewBox="0 0 20 20">
  <path id="Icon_awesome-print" data-name="Icon awesome-print" d="M17.5,7.5V3.018a1.251,1.251,0,0,0-.366-.884L15.366.366A1.25,1.25,0,0,0,14.482,0H3.75A1.25,1.25,0,0,0,2.5,1.25V7.5A2.5,2.5,0,0,0,0,10v4.375A.625.625,0,0,0,.625,15H2.5v3.75A1.25,1.25,0,0,0,3.75,20h12.5a1.25,1.25,0,0,0,1.25-1.25V15h1.875A.625.625,0,0,0,20,14.375V10A2.5,2.5,0,0,0,17.5,7.5ZM15,17.5H5V13.75H15Zm0-8.75H5V2.5h7.5V4.375A.625.625,0,0,0,13.125,5H15Zm1.875,2.813a.938.938,0,1,1,.938-.937A.938.938,0,0,1,16.875,11.563Z" fill="#7f7f7f"/>
</svg>
