<svg xmlns="http://www.w3.org/2000/svg" width="18" height="18" viewBox="0 0 18 18">
  <path id="Icon_ionic-ios-checkbox" data-name="Icon ionic-ios-checkbox" d="M19,2.5H4A1.5,1.5,0,0,0,2.5,4V19A1.5,1.5,0,0,0,4,20.5H19A1.5,1.5,0,0,0,20.5,19V4A1.5,1.5,0,0,0,19,2.5ZM16.539,8.8l-6.267,6.3h0a.847.847,0,0,1-.544.258.821.821,0,0,1-.548-.267L6.55,12.466a.187.187,0,0,1,0-.267l.834-.834a.181.181,0,0,1,.263,0l2.081,2.081,5.719-5.761a.185.185,0,0,1,.131-.056h0a.17.17,0,0,1,.131.056l.82.848A.185.185,0,0,1,16.539,8.8Z" transform="translate(-2.5 -2.5)" fill="rgba(72,72,72,0.6)"/>
</svg>