<svg xmlns="http://www.w3.org/2000/svg" width="30" height="30" viewBox="0 0 30 30">
  <g id="Group_17448" data-name="Group 17448" transform="translate(-274 -207)">
    <circle id="Ellipse_1531" data-name="Ellipse 1531" cx="15" cy="15" r="15" transform="translate(274 207)" fill="#06d6a0"/>
    <path id="Icon_ionic-ios-call" data-name="Icon ionic-ios-call" d="M21.333,17.813a15.754,15.754,0,0,0-3.291-2.2c-.986-.474-1.348-.464-2.046.039-.581.42-.957.811-1.626.664A9.7,9.7,0,0,1,11.1,13.9,9.63,9.63,0,0,1,8.687,10.63c-.142-.674.249-1.045.664-1.626.5-.7.518-1.06.039-2.046a15.443,15.443,0,0,0-2.2-3.291c-.718-.718-.879-.562-1.274-.42a7.252,7.252,0,0,0-1.167.62,3.52,3.52,0,0,0-1.4,1.479c-.278.6-.6,1.719,1.04,4.639a25.883,25.883,0,0,0,4.551,6.069h0l0,0,0,0h0a25.984,25.984,0,0,0,6.069,4.551c2.92,1.641,4.038,1.318,4.639,1.04a3.46,3.46,0,0,0,1.479-1.4,7.252,7.252,0,0,0,.62-1.167C21.895,18.691,22.056,18.53,21.333,17.813Z" transform="translate(276.882 209.873)" fill="#fff"/>
  </g>
</svg>
