<svg xmlns="http://www.w3.org/2000/svg" width="60" height="60" viewBox="0 0 60 60">
  <path id="Icon_metro-qrcode" data-name="Icon metro-qrcode" d="M21.321,5.678h-15v15h15Zm3.75-3.75v22.5H2.571V1.928Zm-15,7.5h7.5v7.5h-7.5Zm48.75-3.75h-15v15h15Zm3.75-3.75v22.5h-22.5V1.928h22.5Zm-15,7.5h7.5v7.5h-7.5Zm-26.25,33.75h-15v15h15Zm3.75-3.75v22.5H2.571v-22.5Zm-15,7.5h7.5v7.5h-7.5Zm18.75-45h3.75v3.75h-3.75Zm3.75,3.75h3.75v3.75h-3.75Zm-3.75,3.75h3.75v3.75h-3.75Zm3.75,3.75h3.75v3.75h-3.75Zm-3.75,3.75h3.75v3.75h-3.75Zm3.75,3.75h3.75v3.75h-3.75Zm-3.75,3.75h3.75v3.75h-3.75Zm0,7.5h3.75v3.75h-3.75Zm3.75,3.75h3.75v3.75h-3.75Zm-3.75,3.75h3.75v3.75h-3.75Zm3.75,3.75h3.75v3.75h-3.75Zm-3.75,3.75h3.75v3.75h-3.75Zm3.75,3.75h3.75v3.75h-3.75Zm-3.75,3.75h3.75v3.75h-3.75Zm3.75,3.75h3.75v3.75h-3.75Zm26.25-26.25h3.75v3.75h-3.75Zm-52.5,0h3.75v3.75H6.321Zm3.75-3.75h3.75v3.75h-3.75Zm-7.5,0h3.75v3.75H2.571Zm15,0h3.75v3.75h-3.75Zm3.75,3.75h3.75v3.75h-3.75Zm3.75-3.75h3.75v3.75h-3.75Zm11.25,3.75h3.75v3.75h-3.75Zm3.75-3.75h3.75v3.75h-3.75Zm3.75,3.75h3.75v3.75h-3.75Zm3.75-3.75h3.75v3.75h-3.75Zm3.75,3.75h3.75v3.75h-3.75Zm3.75-3.75h3.75v3.75h-3.75Zm3.75,11.25h3.75v3.75h-3.75Zm-22.5,0h3.75v3.75h-3.75Zm3.75-3.75h3.75v3.75h-3.75Zm3.75,3.75h3.75v3.75h-3.75Zm7.5,0h3.75v3.75h-3.75Zm3.75-3.75h3.75v3.75h-3.75Zm3.75,11.25h3.75v3.75h-3.75Zm-22.5,0h3.75v3.75h-3.75Zm3.75-3.75h3.75v3.75h-3.75Zm7.5,0h3.75v3.75h-3.75Zm3.75,3.75h3.75v3.75h-3.75Zm3.75-3.75h3.75v3.75h-3.75Zm3.75,11.25h3.75v3.75h-3.75Zm-18.75-3.75h3.75v3.75h-3.75Zm3.75,3.75h3.75v3.75h-3.75Zm3.75-3.75h3.75v3.75h-3.75Zm3.75,3.75h3.75v3.75h-3.75Zm-11.25,3.75h3.75v3.75h-3.75Zm7.5,0h3.75v3.75h-3.75Zm7.5,0h3.75v3.75h-3.75Z" transform="translate(-2.571 -1.928)" fill="#03a9f4"/>
</svg>
