<svg xmlns="http://www.w3.org/2000/svg" width="22.5" height="20" viewBox="0 0 22.5 20">
  <path id="Icon_awesome-file-signature" data-name="Icon awesome-file-signature" d="M8.522,16.568a.433.433,0,0,0-.4-.255.426.426,0,0,0-.391.242l-.3.6a.625.625,0,0,1-1.152-.082L5.625,15.1l-.414,1.245a1.686,1.686,0,0,1-1.6,1.154H3.125a.625.625,0,0,1,0-1.25h.484a.438.438,0,0,0,.416-.3l.711-2.134a.938.938,0,0,1,1.779,0l.542,1.627A1.753,1.753,0,0,1,9.635,16a.443.443,0,0,0,.366.245V13.033l5-4.964V6.25H9.687a.94.94,0,0,1-.937-.937V0H.937A.935.935,0,0,0,0,.938V19.063A.935.935,0,0,0,.937,20H14.062A.935.935,0,0,0,15,19.063V17.5l-5,0A1.677,1.677,0,0,1,8.522,16.568ZM15,4.762a.935.935,0,0,0-.273-.66L10.9.273A.937.937,0,0,0,10.238,0H10V5h5Zm-3.75,8.791v2.7h2.695l6.316-6.359L17.609,7.24ZM22.209,6.536,20.964,5.291a1,1,0,0,0-1.407,0L18.493,6.356l2.652,2.652,1.064-1.064A.994.994,0,0,0,22.209,6.536Z" fill="#484848"/>
</svg>
