<svg xmlns="http://www.w3.org/2000/svg" width="16.8" height="17.5" viewBox="0 0 16.8 17.5">
  <path id="Icon_material-add-shopping-cart" data-name="Icon material-add-shopping-cart" d="M9.167,7.5h1.667V5h2.5V3.333h-2.5V.833H9.167v2.5h-2.5V5h2.5V7.5ZM5.833,15A1.667,1.667,0,1,0,7.5,16.667,1.664,1.664,0,0,0,5.833,15Zm8.333,0a1.667,1.667,0,1,0,1.667,1.667A1.664,1.664,0,0,0,14.167,15ZM5.975,12.292l.025-.1.75-1.358h6.208a1.659,1.659,0,0,0,1.458-.858l3.217-5.842-1.45-.8h-.008L15.258,5l-2.3,4.167H7.108L7,8.942,5.133,5,4.342,3.333,3.558,1.667H.833V3.333H2.5l3,6.325L4.375,11.7a1.611,1.611,0,0,0-.208.8,1.672,1.672,0,0,0,1.667,1.667h10V12.5H6.183a.212.212,0,0,1-.208-.208Z" transform="translate(-0.833 -0.833)" fill="#03a9f4"/>
</svg>
