<svg xmlns="http://www.w3.org/2000/svg" width="28.494" height="18.996" viewBox="0 0 28.494 18.996">
  <path id="Icon_awesome-keyboard" data-name="Icon awesome-keyboard" d="M26.12,21.5H2.375A2.374,2.374,0,0,1,0,19.122V4.875A2.374,2.374,0,0,1,2.375,2.5H26.12a2.374,2.374,0,0,1,2.375,2.375V19.122A2.374,2.374,0,0,1,26.12,21.5ZM6.332,8.238V6.26a.594.594,0,0,0-.594-.594H3.76a.594.594,0,0,0-.594.594V8.238a.594.594,0,0,0,.594.594H5.738A.594.594,0,0,0,6.332,8.238Zm4.749,0V6.26a.594.594,0,0,0-.594-.594H8.509a.594.594,0,0,0-.594.594V8.238a.594.594,0,0,0,.594.594h1.979A.594.594,0,0,0,11.081,8.238Zm4.749,0V6.26a.594.594,0,0,0-.594-.594H13.258a.594.594,0,0,0-.594.594V8.238a.594.594,0,0,0,.594.594h1.979A.594.594,0,0,0,15.83,8.238Zm4.749,0V6.26a.594.594,0,0,0-.594-.594H18.007a.594.594,0,0,0-.594.594V8.238a.594.594,0,0,0,.594.594h1.979A.594.594,0,0,0,20.579,8.238Zm4.749,0V6.26a.594.594,0,0,0-.594-.594H22.756a.594.594,0,0,0-.594.594V8.238a.594.594,0,0,0,.594.594h1.979A.594.594,0,0,0,25.328,8.238ZM8.707,12.987V11.009a.594.594,0,0,0-.594-.594H6.134a.594.594,0,0,0-.594.594v1.979a.594.594,0,0,0,.594.594H8.113A.594.594,0,0,0,8.707,12.987Zm4.749,0V11.009a.594.594,0,0,0-.594-.594H10.883a.594.594,0,0,0-.594.594v1.979a.594.594,0,0,0,.594.594h1.979A.594.594,0,0,0,13.456,12.987Zm4.749,0V11.009a.594.594,0,0,0-.594-.594H15.632a.594.594,0,0,0-.594.594v1.979a.594.594,0,0,0,.594.594h1.979A.594.594,0,0,0,18.2,12.987Zm4.749,0V11.009a.594.594,0,0,0-.594-.594H20.381a.594.594,0,0,0-.594.594v1.979a.594.594,0,0,0,.594.594H22.36A.594.594,0,0,0,22.954,12.987ZM6.332,17.736V15.758a.594.594,0,0,0-.594-.594H3.76a.594.594,0,0,0-.594.594v1.979a.594.594,0,0,0,.594.594H5.738A.594.594,0,0,0,6.332,17.736Zm14.247,0V15.758a.594.594,0,0,0-.594-.594H8.509a.594.594,0,0,0-.594.594v1.979a.594.594,0,0,0,.594.594H19.985A.594.594,0,0,0,20.579,17.736Zm4.749,0V15.758a.594.594,0,0,0-.594-.594H22.756a.594.594,0,0,0-.594.594v1.979a.594.594,0,0,0,.594.594h1.979A.594.594,0,0,0,25.328,17.736Z" transform="translate(0 -2.5)" fill="#7f7f7f" opacity="0.49"/>
</svg>
