<svg xmlns="http://www.w3.org/2000/svg" width="18.976" height="21" viewBox="0 0 18.976 21">
  <path id="Icon_material-share" data-name="Icon material-share" d="M20.313,17.843a3.07,3.07,0,0,0-2.066.812L10.73,14.28a3.451,3.451,0,0,0,.095-.738,3.451,3.451,0,0,0-.095-.738l7.432-4.333a3.156,3.156,0,1,0-1.012-2.309,3.451,3.451,0,0,0,.095.738L9.813,11.233a3.163,3.163,0,1,0,0,4.617l7.506,4.386a2.974,2.974,0,0,0-.084.685,3.078,3.078,0,1,0,3.078-3.078Z" transform="translate(-4.5 -3)" fill="#484848"/>
</svg>
