<svg xmlns="http://www.w3.org/2000/svg" width="33.5" height="33.5" viewBox="0 0 33.5 33.5">
  <path id="Icon_metro-qrcode" data-name="Icon metro-qrcode" d="M13.039,4.022H4.664V12.4h8.375Zm2.094-2.094V14.491H2.571V1.928ZM6.758,6.116h4.188V10.3H6.758ZM33.977,4.022H25.6V12.4h8.375Zm2.094-2.094V14.491H23.508V1.928H36.071ZM27.7,6.116h4.188V10.3H27.7ZM13.039,24.959H4.664v8.375h8.375Zm2.094-2.094V35.428H2.571V22.866ZM6.758,27.053h4.187v4.187H6.758ZM17.227,1.928h2.094V4.022H17.227Zm2.094,2.094h2.094V6.116H19.321ZM17.227,6.116h2.094V8.209H17.227Zm2.094,2.094h2.094V10.3H19.321ZM17.227,10.3h2.094V12.4H17.227ZM19.321,12.4h2.094v2.094H19.321Zm-2.094,2.094h2.094v2.094H17.227Zm0,4.187h2.094v2.094H17.227Zm2.094,2.094h2.094v2.094H19.321Zm-2.094,2.094h2.094v2.094H17.227Zm2.094,2.094h2.094v2.094H19.321Zm-2.094,2.094h2.094v2.094H17.227Zm2.094,2.094h2.094v2.094H19.321Zm-2.094,2.094h2.094v2.094H17.227Zm2.094,2.094h2.094v2.094H19.321ZM33.977,18.678h2.094v2.094H33.977Zm-29.312,0H6.758v2.094H4.664Zm2.094-2.094H8.852v2.094H6.758Zm-4.187,0H4.664v2.094H2.571Zm8.375,0h2.094v2.094H10.946Zm2.094,2.094h2.094v2.094H13.039Zm2.094-2.094h2.094v2.094H15.133Zm6.281,2.094h2.094v2.094H21.414Zm2.094-2.094H25.6v2.094H23.508ZM25.6,18.678H27.7v2.094H25.6ZM27.7,16.584h2.094v2.094H27.7Zm2.094,2.094h2.094v2.094H29.789Zm2.094-2.094h2.094v2.094H31.883Zm2.094,6.281h2.094v2.094H33.977Zm-12.562,0h2.094v2.094H21.414Zm2.094-2.094H25.6v2.094H23.508ZM25.6,22.866H27.7v2.094H25.6Zm4.188,0h2.094v2.094H29.789Zm2.094-2.094h2.094v2.094H31.883Zm2.094,6.281h2.094v2.094H33.977Zm-12.562,0h2.094v2.094H21.414Zm2.094-2.094H25.6v2.094H23.508Zm4.188,0h2.094v2.094H27.7Zm2.094,2.094h2.094v2.094H29.789Zm2.094-2.094h2.094v2.094H31.883Zm2.094,6.281h2.094v2.094H33.977ZM23.508,29.147H25.6v2.094H23.508ZM25.6,31.241H27.7v2.094H25.6ZM27.7,29.147h2.094v2.094H27.7Zm2.094,2.094h2.094v2.094H29.789Zm-6.281,2.094H25.6v2.094H23.508Zm4.188,0h2.094v2.094H27.7Zm4.188,0h2.094v2.094H31.883Z" transform="translate(-2.571 -1.928)" fill="#185CFF"/>
</svg>
