<svg xmlns="http://www.w3.org/2000/svg" width="18.75" height="20.703" viewBox="0 0 18.75 20.703">
  <path id="Icon_ionic-md-share" data-name="Icon ionic-md-share" d="M18.741,16.818a2.847,2.847,0,0,0-2.037.78L9.236,13.281a3.5,3.5,0,0,0,.1-.728,3.5,3.5,0,0,0-.1-.728L16.6,7.558a3.126,3.126,0,1,0-.993-2.289,3.477,3.477,0,0,0,.1.728L8.348,10.263a3.144,3.144,0,0,0-2.141-.832,3.092,3.092,0,0,0-3.081,3.121A3.144,3.144,0,0,0,8.4,14.841l7.417,4.317a2.61,2.61,0,0,0-.1.676,3.029,3.029,0,1,0,3.029-3.017Z" transform="translate(-3.125 -2.148)"/>
</svg>
