<svg xmlns="http://www.w3.org/2000/svg" width="31" height="31" viewBox="0 0 31 31">
  <g id="Group_16133" data-name="Group 16133" transform="translate(-10442 20655)">
    <g id="Ellipse_1415" data-name="Ellipse 1415" transform="translate(10442 -20655)" fill="#fff" stroke="#484848" stroke-width="1">
      <circle cx="15.5" cy="15.5" r="15.5" stroke="none"/>
      <circle cx="15.5" cy="15.5" r="15" fill="none"/>
    </g>
    <path id="Icon_material-person-outline" data-name="Icon material-person-outline" d="M10,4.917a1.75,1.75,0,1,1-1.75,1.75A1.75,1.75,0,0,1,10,4.917m0,7.5c2.475,0,5.083,1.217,5.083,1.75v.917H4.917v-.917c0-.533,2.608-1.75,5.083-1.75m0-9.083a3.333,3.333,0,1,0,3.333,3.333A3.332,3.332,0,0,0,10,3.333Zm0,7.5c-2.225,0-6.667,1.117-6.667,3.333v2.5H16.667v-2.5C16.667,11.95,12.225,10.833,10,10.833Z" transform="translate(10447.667 -20649.334)" fill="#484848"/>
  </g>
</svg>
