<svg xmlns="http://www.w3.org/2000/svg" width="17.012" height="17.012" viewBox="0 0 17.012 17.012">
  <g id="Icon_feather-image" data-name="Icon feather-image" transform="translate(-1.667 -1.667)">
    <path id="Path_24199" data-name="Path 24199" d="M4.167,2.5H15.833A1.667,1.667,0,0,1,17.5,4.167V15.833A1.667,1.667,0,0,1,15.833,17.5H4.167A1.667,1.667,0,0,1,2.5,15.833V4.167A1.667,1.667,0,0,1,4.167,2.5Z" fill="none" stroke="#03a9f4" stroke-linecap="round" stroke-linejoin="round" stroke-width="1.667"/>
    <path id="Path_24200" data-name="Path 24200" d="M8.333,7.083a1.25,1.25,0,1,1-1.25-1.25,1.25,1.25,0,0,1,1.25,1.25Z" fill="none" stroke="#03a9f4" stroke-linecap="round" stroke-linejoin="round" stroke-width="1.667"/>
    <path id="Path_24201" data-name="Path 24201" d="M17.5,12.5,13.333,8.333,4.167,17.5" fill="none" stroke="#03a9f4" stroke-linecap="round" stroke-linejoin="round" stroke-width="1.667"/>
  </g>
</svg>
