<svg xmlns="http://www.w3.org/2000/svg" width="20.313" height="20.313" viewBox="0 0 20.313 20.313">
  <g id="Icon_ionic-ios-add-circle-outline" data-name="Icon ionic-ios-add-circle-outline" transform="translate(-2.344 -2.344)">
    <path id="Path_24369" data-name="Path 24369" d="M16.919,11.719H13.281V8.081a.781.781,0,0,0-1.562,0v3.638H8.081A.748.748,0,0,0,7.3,12.5a.756.756,0,0,0,.781.781h3.638v3.638a.757.757,0,0,0,.781.781.777.777,0,0,0,.781-.781V13.281h3.638a.781.781,0,0,0,0-1.562Z" fill="#7f7f7f"/>
    <path id="Path_24370" data-name="Path 24370" d="M12.5,3.711A8.786,8.786,0,1,1,6.284,6.284,8.731,8.731,0,0,1,12.5,3.711m0-1.367A10.156,10.156,0,1,0,22.656,12.5,10.155,10.155,0,0,0,12.5,2.344Z" fill="#7f7f7f"/>
  </g>
</svg>
