<svg xmlns="http://www.w3.org/2000/svg" width="19.756" height="17.561" viewBox="0 0 19.756 17.561">
  <path id="Icon_awesome-file-signature" data-name="Icon awesome-file-signature" d="M7.483,14.547a.38.38,0,0,0-.349-.224.374.374,0,0,0-.344.212l-.263.526a.549.549,0,0,1-1.011-.072l-.577-1.731-.364,1.093a1.481,1.481,0,0,1-1.406,1.013H2.744a.549.549,0,0,1,0-1.1h.425a.384.384,0,0,0,.365-.263l.624-1.874a.823.823,0,0,1,1.562,0L6.2,13.559a1.539,1.539,0,0,1,2.264.486.389.389,0,0,0,.321.215V11.443l4.39-4.359v-1.6H8.506a.826.826,0,0,1-.823-.823V0H.823A.821.821,0,0,0,0,.823V16.737a.821.821,0,0,0,.823.823H12.347a.821.821,0,0,0,.823-.823V15.365l-4.39,0A1.473,1.473,0,0,1,7.483,14.547ZM13.17,4.181a.821.821,0,0,0-.24-.58L9.573.24A.823.823,0,0,0,8.989,0H8.78V4.39h4.39ZM9.878,11.9v2.368h2.366l5.545-5.583L15.461,6.357ZM19.5,5.739,18.407,4.646a.874.874,0,0,0-1.235,0l-.935.935,2.328,2.328.935-.935A.873.873,0,0,0,19.5,5.739Z" fill="#06d6a0"/>
</svg>
